Coordinates
version=1
nRows=12
nColumns=24
inDegrees=yes

Units are S.I. units (second, meters, Newtons, ...)
Angles are in degrees.

endheader
time	pelvis_tilt	pelvis_list	pelvis_rotation	pelvis_tx	pelvis_ty	pelvis_tz	hip_flexion_r	hip_adduction_r	hip_rotation_r	knee_angle_r	ankle_angle_r	subtalar_angle_r	mtp_angle_r	hip_flexion_l	hip_adduction_l	hip_rotation_l	knee_angle_l	ankle_angle_l	subtalar_angle_l	mtp_angle_l	lumbar_extension	lumbar_bending	lumbar_rotation
      0.45000000	     -2.31334690	      3.41697834	      2.85312921	     -0.79319904	      1.04104004	      0.27195027	     28.90191143	     -4.29054063	     -4.91140241	     -2.59376298	      8.32041557	     -1.73463887	     10.61414886	    -16.62646546	      4.42370116	      4.59032758	     -3.70031442	     16.92371343	      6.60165050	      4.47249629	    -12.44328978	     -1.68843601	     -6.59037399
      0.45416667	     -2.32258438	      3.41550044	      2.96112719	     -0.78724905	      1.04017267	      0.27199726	     28.89306976	     -4.29106144	     -4.50573157	     -3.09940709	      8.34755987	     -1.88519732	     10.60982749	    -16.79770360	      4.36016375	      4.61745576	     -4.04296933	     16.98669177	      6.78099111	      4.51982657	    -12.43757884	     -1.55881742	     -6.62716782
      0.45833333	     -2.31451203	      3.38506454	      3.07083893	     -0.78122844	      1.03937218	      0.27204977	     28.83699341	     -4.25671644	     -4.12040104	     -3.57880495	      8.23991925	     -2.16798668	     10.60469255	    -16.95265589	      4.25768764	      4.49884672	     -4.46110655	     17.09773457	      7.16372850	      4.63425940	    -12.43190083	     -1.38384389	     -6.67146770
      0.46250000	     -2.31451183	      3.35745206	      3.18600852	     -0.77515976	      1.03860467	      0.27211247	     28.77499776	     -4.22492372	     -3.77042591	     -4.05757368	      8.13829433	     -2.37237472	     10.60911588	    -17.09039941	      4.15556565	      4.40072171	     -4.89729820	     17.17517703	      7.51567011	      4.78812863	    -12.41649069	     -1.21476793	     -6.69579435
      0.46666667	     -2.30006593	      3.32404914	      3.30989156	     -0.76905552	      1.03790910	      0.27217858	     28.67521270	     -4.18667315	     -3.44197342	     -4.51482610	      8.01104042	     -2.58425397	     10.62017728	    -17.24256561	      4.04223262	      4.34600901	     -5.33933977	     17.23423254	      7.82430519	      4.94279078	    -12.41847764	     -1.03029220	     -6.73874461
      0.47083333	     -2.30434619	      3.27108474	      3.43755972	     -0.76286599	      1.03724400	      0.27224320	     28.57541081	     -4.12874196	     -3.17270112	     -4.95112004	      7.77120463	     -2.82728691	     10.63768493	    -17.35564721	      3.90506982	      4.23198660	     -5.81841466	     17.26353906	      8.19331694	      5.13135159	    -12.37600716	     -0.82390417	     -6.76998928
      0.47500000	     -2.29131253	      3.22619163	      3.54681355	     -0.75667163	      1.03663722	      0.27237505	     28.45533244	     -4.06509902	     -2.89571673	     -5.38792939	      7.53133435	     -3.08018944	     10.67472402	    -17.47672846	      3.77375719	      4.05615964	     -6.31334613	     17.25731482	      8.61404739	      5.44699691	    -12.35936790	     -0.64405876	     -6.79303062
      0.47916667	     -2.28978105	      3.15153708	      3.67909086	     -0.75038800	      1.03609211	      0.27244892	     28.31544192	     -3.98306736	     -2.68893207	     -5.77774994	      7.19555025	     -3.36234395	     10.71219126	    -17.57545270	      3.60766034	      3.92964048	     -6.83659628	     17.23325697	      8.97977656	      5.75193601	    -12.31467293	     -0.40685326	     -6.84030163
      0.48333333	     -2.27848849	      3.07482898	      3.80901400	     -0.74409486	      1.03562863	      0.27254820	     28.15891766	     -3.89609041	     -2.51716133	     -6.15696995	      6.81998616	     -3.64894494	     10.75389065	    -17.66047957	      3.43661181	      3.78901334	     -7.39784269	     17.18937588	      9.35813816	      6.08078843	    -12.28163760	     -0.16774939	     -6.86108643
      0.48750000	     -2.27740379	      2.98394757	      3.94294315	     -0.73775589	      1.03520791	      0.27264522	     28.00618476	     -3.79775553	     -2.39394323	     -6.52586421	      6.39404912	     -3.94451263	     10.79639468	    -17.72245476	      3.24818604	      3.63835566	     -7.98784260	     17.11121807	      9.73231820	      6.42085732	    -12.22561696	      0.08425071	     -6.88725306
      0.49166667	     -2.27652316	      2.90680464	      4.06133523	     -0.73141451	      1.03485065	      0.27279617	     27.85831075	     -3.70526111	     -2.27461242	     -6.89535435	      5.89460433	     -4.26303956	     10.85439562	    -17.76407344	      3.07368962	      3.44982303	     -8.60117813	     16.98344857	     10.17888228	      6.91108590	    -12.17693656	      0.30464299	     -6.90157706
      0.49583333	     -2.30081990	      2.79317030	      4.18609297	     -0.72500167	      1.03451651	      0.27290064	     27.74987024	     -3.59105364	     -2.30534457	     -7.29947262	      5.46632101	     -4.40288649	     11.13373414	    -17.73401799	      2.85796322	      3.17485868	     -9.30625796	     16.85604855	     10.67357660	      9.18321853	    -12.08929311	      0.56564670	     -6.71959090
